# xmcd
#
# Track frame offsets:
#	180
#	15203
#	37132
#
# Disc length: 712 seconds
#
# Revision: 0
# Processed by: cddbd v1.5.2PL0 Copyright (c) Steve Scherf et al.
# Submitted via: audiograbber 1.82.02
#
DISCID=1802c603
DTITLE=Beatlesons - It's A Heartache (Maxi CD)
DYEAR=1900
DGENRE=Country
TTITLE0=It's A Heartache
TTITLE1=Wild Wedding
TTITLE2=Born To Be Alive
EXTD=
EXTT0=
EXTT1=
EXTT2=
PLAYORDER=
